<svg xmlns="http://www.w3.org/2000/svg" xmlns:xlink="http://www.w3.org/1999/xlink" width="500" zoomAndPan="magnify" viewBox="0 0 375 374.999991" height="500" preserveAspectRatio="xMidYMid meet" version="1.0"><defs><g/><clipPath id="73c3ef62ea"><path d="M 66.140625 151 L 110.390625 151 L 110.390625 224 L 66.140625 224 Z M 66.140625 151 " clip-rule="nonzero"/></clipPath></defs><g clip-path="url(#73c3ef62ea)"><path fill="#000000" d="M 79.441406 169.84375 L 79.441406 163.878906 C 79.441406 163.046875 79.933594 162.363281 80.714844 162.019531 L 81.007812 161.921875 L 106.878906 151.945312 L 107.5625 151.703125 C 108.199219 151.457031 108.832031 151.554688 109.371094 151.898438 C 109.910156 152.289062 110.203125 152.828125 110.203125 153.511719 L 110.203125 168.035156 C 110.203125 168.867188 109.714844 169.550781 108.933594 169.894531 L 108.636719 169.992188 L 72.300781 184.027344 C 71.519531 184.320312 71.03125 185.054688 71.03125 185.886719 L 71.03125 189.0625 C 71.03125 189.75 71.324219 190.285156 71.863281 190.679688 C 72.402344 191.070312 73.085938 191.117188 73.671875 190.875 L 106.828125 178.011719 L 107.511719 177.765625 C 108.148438 177.523438 108.785156 177.621094 109.324219 177.964844 C 109.859375 178.355469 110.15625 178.941406 110.15625 179.578125 L 110.15625 193.125 C 110.15625 193.953125 109.664062 194.640625 108.882812 194.933594 L 108.589844 195.03125 L 97.878906 199.1875 C 97.097656 199.480469 96.609375 200.214844 96.609375 200.996094 L 96.609375 214.640625 C 96.609375 215.421875 96.214844 216.058594 95.53125 216.402344 L 95.238281 216.546875 L 82.867188 222.855469 L 82.132812 223.199219 C 81.496094 223.542969 80.8125 223.492188 80.226562 223.101562 C 79.636719 222.710938 79.296875 222.125 79.296875 221.4375 L 79.296875 198.601562 C 79.296875 197.769531 79.785156 197.085938 80.566406 196.742188 L 81.546875 196.351562 C 82.179688 196.105469 82.816406 196.203125 83.355469 196.546875 C 83.894531 196.9375 84.1875 197.476562 84.1875 198.160156 L 84.1875 213.371094 C 84.1875 214.054688 84.527344 214.691406 85.117188 215.03125 C 85.703125 215.421875 86.386719 215.421875 87.023438 215.128906 L 90.542969 213.320312 C 91.226562 212.976562 91.621094 212.34375 91.621094 211.558594 L 91.621094 197.574219 C 91.621094 196.742188 92.109375 196.058594 92.890625 195.765625 L 93.183594 195.667969 L 103.894531 191.507812 C 104.675781 191.214844 105.167969 190.480469 105.167969 189.699219 L 105.167969 186.667969 C 105.167969 185.984375 104.871094 185.445312 104.335938 185.054688 C 103.796875 184.664062 103.160156 184.613281 102.523438 184.859375 L 82.621094 192.585938 L 72.792969 196.398438 L 69.367188 197.71875 L 68.683594 197.964844 C 68.046875 198.210938 67.414062 198.113281 66.875 197.769531 C 66.335938 197.378906 66.042969 196.792969 66.042969 196.15625 L 66.042969 182.460938 C 66.042969 181.628906 66.53125 180.945312 67.3125 180.605469 L 67.609375 180.507812 L 73.28125 178.304688 L 89.566406 171.996094 L 103.945312 166.421875 C 104.726562 166.128906 105.214844 165.394531 105.214844 164.5625 L 105.214844 160.503906 C 105.214844 159.820312 104.921875 159.28125 104.382812 158.890625 C 103.847656 158.5 103.210938 158.449219 102.574219 158.695312 L 85.554688 165.246094 C 84.773438 165.542969 84.285156 166.273438 84.285156 167.105469 L 84.285156 169.355469 C 84.285156 170.1875 83.796875 170.871094 83.011719 171.214844 L 82.035156 171.605469 C 81.398438 171.851562 80.761719 171.753906 80.226562 171.410156 C 79.6875 171.019531 79.394531 170.480469 79.394531 169.796875 Z M 79.441406 169.84375 " fill-opacity="1" fill-rule="evenodd"/></g><g fill="#000000" fill-opacity="1"><g transform="translate(119.208717, 193.50346)"><g><path d="M 6.132812 -14.644531 C 6.382812 -14.644531 6.664062 -14.644531 6.914062 -14.644531 C 7.167969 -14.644531 7.449219 -14.726562 7.699219 -14.726562 C 7.980469 -14.726562 8.230469 -14.671875 8.484375 -14.671875 C 8.761719 -14.671875 9.015625 -14.644531 9.265625 -14.644531 C 9.546875 -14.644531 9.800781 -14.726562 10.078125 -14.726562 C 10.332031 -14.726562 10.582031 -14.644531 10.863281 -14.644531 C 11.113281 -14.644531 11.367188 -14.726562 11.648438 -14.726562 C 11.984375 -14.726562 12.234375 -14.726562 12.488281 -14.8125 C 12.738281 -14.921875 12.933594 -15.089844 13.074219 -15.371094 C 13.160156 -15.59375 13.269531 -15.847656 13.296875 -16.183594 C 13.328125 -16.546875 13.269531 -16.828125 13.214844 -17.023438 C 13.101562 -17.332031 12.933594 -17.527344 12.65625 -17.609375 C 12.402344 -17.667969 12.121094 -17.695312 11.816406 -17.695312 C 11.5625 -17.695312 11.3125 -17.667969 11.058594 -17.667969 C 10.835938 -17.667969 10.582031 -17.722656 10.332031 -17.722656 C 10.078125 -17.722656 9.855469 -17.695312 9.601562 -17.695312 C 9.351562 -17.695312 9.097656 -17.667969 8.847656 -17.695312 C 8.625 -17.695312 8.371094 -17.695312 8.121094 -17.695312 C 7.867188 -17.695312 7.644531 -17.695312 7.390625 -17.695312 C 7.140625 -17.695312 6.886719 -17.75 6.664062 -17.75 C 6.410156 -17.75 6.160156 -17.777344 5.90625 -17.777344 C 5.683594 -17.75 5.429688 -17.722656 5.179688 -17.695312 C 4.957031 -17.695312 4.730469 -17.636719 4.507812 -17.609375 C 4.285156 -17.609375 4.03125 -17.636719 3.835938 -17.636719 C 3.582031 -17.636719 3.359375 -17.582031 3.164062 -17.582031 C 2.742188 -17.554688 2.6875 -17.863281 2.4375 -17.609375 C 2.183594 -17.332031 2.40625 -17.300781 2.351562 -16.828125 C 2.324219 -16.601562 2.378906 -16.324219 2.351562 -16.042969 C 2.324219 -15.789062 2.269531 -15.539062 2.238281 -15.257812 C 2.238281 -15.089844 2.269531 -14.78125 2.296875 -14.476562 C 2.296875 -14.167969 2.210938 -13.886719 2.210938 -13.691406 C 2.210938 -13.4375 2.183594 -13.1875 2.183594 -12.933594 C 2.183594 -12.65625 2.210938 -12.402344 2.183594 -12.152344 C 2.183594 -11.871094 2.238281 -11.617188 2.238281 -11.367188 C 2.238281 -11.113281 2.238281 -10.835938 2.238281 -10.582031 C 2.210938 -10.332031 2.210938 -10.050781 2.210938 -9.800781 C 2.210938 -9.546875 2.15625 -9.296875 2.15625 -9.015625 C 2.15625 -8.761719 2.183594 -8.511719 2.183594 -8.230469 C 2.183594 -7.980469 2.210938 -7.726562 2.210938 -7.476562 C 2.210938 -7.195312 2.128906 -6.945312 2.128906 -6.691406 C 2.101562 -6.410156 2.210938 -6.160156 2.210938 -5.90625 C 2.210938 -5.65625 2.183594 -5.375 2.183594 -5.125 C 2.183594 -4.871094 2.128906 -4.589844 2.128906 -4.339844 C 2.128906 -4.085938 2.183594 -3.835938 2.183594 -3.554688 C 2.183594 -3.304688 2.101562 -3.050781 2.101562 -2.773438 C 2.070312 -2.464844 2.101562 -2.210938 2.101562 -1.933594 C 2.128906 -1.679688 2.183594 -1.398438 2.15625 -1.0625 C 2.15625 -0.726562 2.238281 -0.476562 2.4375 -0.308594 C 2.632812 -0.167969 2.941406 -0.140625 3.246094 -0.0859375 C 3.5 -0.0546875 3.78125 0 4.085938 0 C 4.367188 0 4.621094 0 4.757812 -0.113281 C 4.984375 -0.222656 5.039062 -0.476562 5.09375 -0.671875 C 5.152344 -0.925781 5.152344 -1.148438 5.179688 -1.34375 C 5.207031 -1.597656 5.261719 -1.847656 5.292969 -2.101562 C 5.292969 -2.351562 5.234375 -2.632812 5.234375 -2.882812 C 5.234375 -3.136719 5.234375 -3.386719 5.234375 -3.640625 C 5.207031 -3.890625 5.234375 -4.144531 5.207031 -4.394531 C 5.207031 -4.648438 5.207031 -4.898438 5.179688 -5.152344 C 5.179688 -5.375 5.207031 -5.597656 5.207031 -5.824219 C 5.234375 -6.046875 5.207031 -6.269531 5.207031 -6.46875 C 5.234375 -6.859375 5.09375 -6.886719 5.320312 -7.113281 C 5.570312 -7.363281 5.570312 -7.167969 5.992188 -7.195312 C 6.1875 -7.222656 6.410156 -7.222656 6.664062 -7.222656 C 6.886719 -7.222656 7.113281 -7.25 7.363281 -7.222656 C 7.585938 -7.25 7.839844 -7.25 8.0625 -7.222656 C 8.289062 -7.222656 8.539062 -7.25 8.761719 -7.25 C 9.015625 -7.25 9.238281 -7.222656 9.492188 -7.222656 C 9.714844 -7.222656 9.96875 -7.25 10.191406 -7.28125 C 10.414062 -7.28125 10.667969 -7.25 10.917969 -7.28125 C 11.171875 -7.335938 11.339844 -7.558594 11.480469 -7.785156 C 11.617188 -7.980469 11.675781 -8.230469 11.757812 -8.484375 C 11.84375 -8.734375 11.925781 -8.960938 11.925781 -9.15625 C 11.898438 -9.433594 11.785156 -9.632812 11.617188 -9.800781 C 11.480469 -9.9375 11.28125 -10.078125 11.003906 -10.136719 C 10.722656 -10.191406 10.414062 -10.21875 10.136719 -10.246094 C 9.828125 -10.246094 9.519531 -10.191406 9.238281 -10.191406 C 8.988281 -10.191406 8.734375 -10.273438 8.457031 -10.273438 C 8.203125 -10.273438 7.953125 -10.273438 7.671875 -10.273438 C 7.417969 -10.273438 7.167969 -10.21875 6.886719 -10.21875 C 6.636719 -10.21875 6.382812 -10.191406 6.101562 -10.191406 C 5.851562 -10.191406 5.597656 -10.21875 5.347656 -10.21875 C 5.347656 -10.5 5.375 -10.722656 5.375 -10.976562 C 5.375 -11.226562 5.292969 -11.480469 5.292969 -11.703125 C 5.292969 -11.953125 5.375 -12.207031 5.375 -12.457031 C 5.375 -12.683594 5.320312 -12.933594 5.320312 -13.1875 C 5.320312 -13.4375 5.320312 -13.691406 5.320312 -13.941406 C 5.320312 -14.167969 5.375 -14.390625 5.375 -14.644531 C 5.628906 -14.644531 5.851562 -14.644531 6.132812 -14.644531 Z M 6.132812 -14.644531 "/></g></g></g><g fill="#000000" fill-opacity="1"><g transform="translate(140.59877, 193.50346)"><g><path d="M 5.261719 -9.601562 C 5.261719 -9.855469 5.261719 -10.105469 5.261719 -10.359375 C 5.261719 -10.609375 5.261719 -10.890625 5.261719 -11.144531 C 5.261719 -11.394531 5.320312 -11.648438 5.320312 -11.898438 C 5.320312 -12.152344 5.375 -12.429688 5.375 -12.683594 C 5.375 -12.933594 5.320312 -13.1875 5.320312 -13.4375 C 5.320312 -13.691406 5.292969 -13.941406 5.292969 -14.195312 C 5.292969 -14.476562 5.320312 -14.726562 5.320312 -14.980469 C 5.320312 -15.230469 5.292969 -15.484375 5.292969 -15.734375 C 5.292969 -16.015625 5.375 -16.265625 5.347656 -16.492188 C 5.320312 -16.796875 5.234375 -17.050781 5.152344 -17.246094 C 5.039062 -17.5 4.816406 -17.554688 4.535156 -17.609375 C 4.339844 -17.636719 4.085938 -17.695312 3.78125 -17.695312 C 3.5 -17.695312 3.246094 -17.667969 3.050781 -17.636719 C 2.800781 -17.582031 2.574219 -17.554688 2.4375 -17.273438 C 2.351562 -17.105469 2.296875 -16.882812 2.269531 -16.546875 C 2.238281 -16.324219 2.238281 -16.070312 2.238281 -15.789062 C 2.238281 -15.539062 2.296875 -15.316406 2.296875 -15.0625 C 2.296875 -14.8125 2.296875 -14.558594 2.296875 -14.308594 C 2.269531 -14.054688 2.269531 -13.804688 2.269531 -13.550781 C 2.269531 -13.296875 2.210938 -13.046875 2.210938 -12.792969 C 2.210938 -12.570312 2.238281 -12.320312 2.238281 -12.066406 C 2.238281 -11.816406 2.269531 -11.5625 2.269531 -11.3125 C 2.269531 -11.058594 2.183594 -10.808594 2.183594 -10.554688 C 2.183594 -10.304688 2.269531 -10.050781 2.269531 -9.800781 C 2.269531 -9.546875 2.238281 -9.296875 2.238281 -9.042969 C 2.238281 -8.792969 2.183594 -8.566406 2.183594 -8.316406 C 2.183594 -8.0625 2.238281 -7.8125 2.238281 -7.558594 C 2.238281 -7.308594 2.15625 -7.054688 2.15625 -6.804688 C 2.15625 -6.550781 2.15625 -6.328125 2.15625 -6.074219 C 2.15625 -5.824219 2.210938 -5.570312 2.210938 -5.320312 C 2.210938 -5.066406 2.15625 -4.816406 2.15625 -4.5625 C 2.15625 -4.339844 2.210938 -4.085938 2.210938 -3.835938 C 2.210938 -3.582031 2.183594 -3.332031 2.183594 -3.078125 C 2.183594 -2.855469 2.128906 -2.605469 2.128906 -2.351562 C 2.128906 -2.128906 2.128906 -1.875 2.101562 -1.566406 C 2.070312 -1.34375 2.070312 -1.09375 2.070312 -0.785156 C 2.042969 -0.421875 2.210938 -0.167969 2.464844 -0.0546875 C 2.742188 0.113281 3.136719 0.0546875 3.304688 0.0546875 C 3.554688 0.0546875 3.835938 0.0273438 4.085938 0.0273438 C 4.367188 0 4.648438 -0.0273438 4.871094 -0.0859375 C 5.152344 -0.195312 5.320312 -0.335938 5.292969 -0.617188 C 5.261719 -0.839844 5.292969 -1.0625 5.292969 -1.289062 C 5.292969 -1.511719 5.261719 -1.734375 5.261719 -1.933594 C 5.261719 -2.15625 5.347656 -2.378906 5.347656 -2.605469 C 5.347656 -2.855469 5.320312 -3.109375 5.320312 -3.359375 C 5.320312 -3.640625 5.347656 -3.890625 5.347656 -4.144531 C 5.347656 -4.421875 5.320312 -4.675781 5.320312 -4.925781 C 5.320312 -5.179688 5.320312 -5.460938 5.320312 -5.710938 C 5.320312 -5.964844 5.320312 -6.242188 5.320312 -6.496094 C 5.320312 -6.746094 5.320312 -7.027344 5.320312 -7.28125 C 5.320312 -7.53125 5.320312 -7.785156 5.320312 -8.0625 C 5.320312 -8.316406 5.375 -8.566406 5.375 -8.847656 C 5.375 -9.070312 5.261719 -9.351562 5.261719 -9.601562 Z M 5.261719 -9.601562 "/></g></g></g><g fill="#000000" fill-opacity="1"><g transform="translate(155.353734, 193.50346)"><g><path d="M 8.425781 -5.90625 C 8.566406 -5.710938 8.707031 -5.460938 8.875 -5.207031 C 9.015625 -4.984375 9.15625 -4.730469 9.296875 -4.507812 C 9.464844 -4.226562 9.660156 -4.003906 9.769531 -3.835938 C 9.882812 -3.640625 10.023438 -3.414062 10.164062 -3.164062 C 10.273438 -2.941406 10.386719 -2.6875 10.527344 -2.464844 C 10.667969 -2.210938 10.75 -1.960938 10.890625 -1.765625 C 11.03125 -1.511719 11.226562 -1.289062 11.339844 -1.121094 C 11.507812 -0.894531 11.535156 -0.644531 11.648438 -0.503906 C 11.84375 -0.253906 12.039062 -0.140625 12.207031 -0.0546875 C 12.402344 0.0273438 12.597656 0.0273438 12.851562 0.0273438 C 13.046875 0 13.269531 0.0546875 13.550781 0.0546875 C 13.832031 0.0273438 14.054688 0 14.222656 -0.0273438 C 14.558594 -0.0859375 14.671875 -0.222656 14.671875 -0.449219 C 14.671875 -0.617188 14.613281 -0.8125 14.503906 -1.121094 C 14.417969 -1.316406 14.335938 -1.566406 14.195312 -1.820312 C 14.054688 -2.042969 13.941406 -2.269531 13.804688 -2.519531 C 13.691406 -2.742188 13.496094 -2.941406 13.382812 -3.191406 C 13.242188 -3.414062 13.160156 -3.640625 13.019531 -3.890625 C 12.878906 -4.117188 12.792969 -4.367188 12.65625 -4.589844 C 12.515625 -4.816406 12.347656 -5.011719 12.207031 -5.234375 C 12.066406 -5.460938 11.925781 -5.683594 11.785156 -5.90625 C 11.648438 -6.160156 11.589844 -6.410156 11.449219 -6.605469 C 11.3125 -6.886719 11.199219 -7.113281 11.085938 -7.308594 C 10.917969 -7.53125 10.75 -7.726562 10.667969 -7.921875 C 10.5 -8.175781 10.332031 -8.371094 10.273438 -8.539062 C 10.164062 -8.820312 10.191406 -9.015625 10.304688 -9.265625 C 10.359375 -9.433594 10.472656 -9.660156 10.667969 -9.910156 C 10.808594 -10.105469 10.890625 -10.332031 11.058594 -10.582031 C 11.199219 -10.777344 11.3125 -11.03125 11.449219 -11.253906 C 11.589844 -11.480469 11.757812 -11.675781 11.898438 -11.898438 C 12.011719 -12.121094 12.152344 -12.347656 12.289062 -12.570312 C 12.429688 -12.792969 12.597656 -12.992188 12.738281 -13.214844 C 12.878906 -13.4375 12.960938 -13.691406 13.101562 -13.914062 C 13.242188 -14.140625 13.382812 -14.335938 13.523438 -14.558594 C 13.664062 -14.78125 13.746094 -15.035156 13.859375 -15.257812 C 14 -15.511719 14.195312 -15.707031 14.308594 -15.902344 C 14.476562 -16.183594 14.585938 -16.433594 14.671875 -16.574219 C 14.867188 -16.855469 14.867188 -17.050781 14.8125 -17.191406 C 14.726562 -17.386719 14.558594 -17.527344 14.277344 -17.582031 C 14.082031 -17.636719 13.832031 -17.636719 13.578125 -17.636719 C 13.296875 -17.667969 13.046875 -17.667969 12.851562 -17.667969 C 12.597656 -17.636719 12.375 -17.636719 12.152344 -17.441406 C 11.984375 -17.332031 11.84375 -17.132812 11.675781 -16.855469 C 11.5625 -16.714844 11.421875 -16.492188 11.28125 -16.238281 C 11.144531 -16.070312 10.976562 -15.875 10.835938 -15.652344 C 10.695312 -15.453125 10.609375 -15.230469 10.472656 -15.007812 C 10.332031 -14.8125 10.21875 -14.613281 10.078125 -14.390625 C 9.9375 -14.195312 9.828125 -13.972656 9.6875 -13.773438 C 9.546875 -13.550781 9.433594 -13.355469 9.324219 -13.160156 C 9.15625 -12.90625 9.015625 -12.710938 8.902344 -12.542969 C 8.761719 -12.347656 8.652344 -12.121094 8.566406 -11.953125 C 8.398438 -11.648438 8.257812 -11.507812 8.089844 -11.507812 C 7.953125 -11.507812 7.785156 -11.5625 7.53125 -11.871094 C 7.417969 -12.039062 7.335938 -12.261719 7.195312 -12.488281 C 7.054688 -12.683594 6.886719 -12.851562 6.746094 -13.074219 C 6.636719 -13.269531 6.550781 -13.496094 6.4375 -13.71875 C 6.300781 -13.914062 6.132812 -14.082031 5.992188 -14.277344 C 5.878906 -14.476562 5.738281 -14.699219 5.628906 -14.894531 C 5.488281 -15.089844 5.375 -15.316406 5.261719 -15.484375 C 5.125 -15.707031 5.039062 -15.929688 4.925781 -16.125 C 4.789062 -16.351562 4.675781 -16.574219 4.5625 -16.742188 C 4.394531 -16.996094 4.171875 -17.164062 4.03125 -17.300781 C 3.78125 -17.527344 3.613281 -17.636719 3.386719 -17.667969 C 3.164062 -17.695312 2.910156 -17.695312 2.605469 -17.667969 C 2.378906 -17.636719 2.128906 -17.636719 1.902344 -17.636719 C 1.652344 -17.636719 1.429688 -17.609375 1.230469 -17.554688 C 1.035156 -17.441406 0.953125 -17.332031 1.007812 -16.996094 C 1.035156 -16.828125 1.09375 -16.601562 1.230469 -16.351562 C 1.316406 -16.15625 1.429688 -15.957031 1.597656 -15.734375 C 1.707031 -15.566406 1.765625 -15.316406 1.902344 -15.089844 C 2.042969 -14.894531 2.210938 -14.726562 2.351562 -14.503906 C 2.492188 -14.308594 2.605469 -14.082031 2.714844 -13.886719 C 2.855469 -13.664062 3.023438 -13.496094 3.164062 -13.269531 C 3.277344 -13.074219 3.414062 -12.878906 3.554688 -12.65625 C 3.695312 -12.457031 3.835938 -12.261719 3.949219 -12.066406 C 4.085938 -11.84375 4.171875 -11.617188 4.3125 -11.421875 C 4.453125 -11.199219 4.589844 -11.003906 4.703125 -10.808594 C 4.84375 -10.582031 4.984375 -10.386719 5.125 -10.191406 C 5.261719 -9.96875 5.460938 -9.800781 5.570312 -9.632812 C 5.738281 -9.40625 5.765625 -9.15625 5.765625 -8.960938 C 5.738281 -8.734375 5.65625 -8.511719 5.542969 -8.316406 C 5.429688 -8.121094 5.261719 -7.953125 5.125 -7.726562 C 5.011719 -7.558594 4.925781 -7.308594 4.816406 -7.113281 C 4.703125 -6.914062 4.5625 -6.71875 4.421875 -6.496094 C 4.3125 -6.269531 4.171875 -6.074219 4.03125 -5.851562 C 3.890625 -5.65625 3.75 -5.460938 3.613281 -5.234375 C 3.5 -5.011719 3.414062 -4.789062 3.277344 -4.5625 C 3.164062 -4.339844 2.996094 -4.144531 2.882812 -3.949219 C 2.742188 -3.722656 2.6875 -3.472656 2.546875 -3.277344 C 2.4375 -3.050781 2.269531 -2.855469 2.128906 -2.660156 C 2.015625 -2.4375 1.847656 -2.238281 1.734375 -2.042969 C 1.597656 -1.792969 1.539062 -1.539062 1.457031 -1.34375 C 1.289062 -1.035156 1.175781 -0.8125 1.203125 -0.617188 C 1.230469 -0.363281 1.457031 -0.222656 1.734375 -0.140625 C 1.960938 -0.0546875 2.210938 0.0546875 2.519531 0.0546875 C 2.882812 0.0546875 3.191406 0.0273438 3.414062 0 C 3.863281 -0.0546875 4.085938 -0.195312 4.226562 -0.363281 C 4.367188 -0.558594 4.535156 -0.757812 4.675781 -1.007812 C 4.816406 -1.203125 4.984375 -1.429688 5.125 -1.679688 C 5.234375 -1.902344 5.402344 -2.101562 5.542969 -2.351562 C 5.65625 -2.574219 5.796875 -2.828125 5.90625 -3.050781 C 6.046875 -3.277344 6.101562 -3.554688 6.242188 -3.78125 C 6.355469 -4.03125 6.496094 -4.253906 6.636719 -4.480469 C 6.746094 -4.730469 6.886719 -4.957031 7.027344 -5.179688 C 7.167969 -5.429688 7.308594 -5.65625 7.417969 -5.851562 C 7.644531 -6.214844 7.785156 -6.4375 7.894531 -6.4375 C 8.035156 -6.4375 8.203125 -6.242188 8.425781 -5.90625 Z M 8.425781 -5.90625 "/></g></g></g><g fill="#000000" fill-opacity="1"><g transform="translate(178.423562, 193.50346)"><g><path d="M 5.261719 -9.601562 C 5.261719 -9.855469 5.261719 -10.105469 5.261719 -10.359375 C 5.261719 -10.609375 5.261719 -10.890625 5.261719 -11.144531 C 5.261719 -11.394531 5.320312 -11.648438 5.320312 -11.898438 C 5.320312 -12.152344 5.375 -12.429688 5.375 -12.683594 C 5.375 -12.933594 5.320312 -13.1875 5.320312 -13.4375 C 5.320312 -13.691406 5.292969 -13.941406 5.292969 -14.195312 C 5.292969 -14.476562 5.320312 -14.726562 5.320312 -14.980469 C 5.320312 -15.230469 5.292969 -15.484375 5.292969 -15.734375 C 5.292969 -16.015625 5.375 -16.265625 5.347656 -16.492188 C 5.320312 -16.796875 5.234375 -17.050781 5.152344 -17.246094 C 5.039062 -17.5 4.816406 -17.554688 4.535156 -17.609375 C 4.339844 -17.636719 4.085938 -17.695312 3.78125 -17.695312 C 3.5 -17.695312 3.246094 -17.667969 3.050781 -17.636719 C 2.800781 -17.582031 2.574219 -17.554688 2.4375 -17.273438 C 2.351562 -17.105469 2.296875 -16.882812 2.269531 -16.546875 C 2.238281 -16.324219 2.238281 -16.070312 2.238281 -15.789062 C 2.238281 -15.539062 2.296875 -15.316406 2.296875 -15.0625 C 2.296875 -14.8125 2.296875 -14.558594 2.296875 -14.308594 C 2.269531 -14.054688 2.269531 -13.804688 2.269531 -13.550781 C 2.269531 -13.296875 2.210938 -13.046875 2.210938 -12.792969 C 2.210938 -12.570312 2.238281 -12.320312 2.238281 -12.066406 C 2.238281 -11.816406 2.269531 -11.5625 2.269531 -11.3125 C 2.269531 -11.058594 2.183594 -10.808594 2.183594 -10.554688 C 2.183594 -10.304688 2.269531 -10.050781 2.269531 -9.800781 C 2.269531 -9.546875 2.238281 -9.296875 2.238281 -9.042969 C 2.238281 -8.792969 2.183594 -8.566406 2.183594 -8.316406 C 2.183594 -8.0625 2.238281 -7.8125 2.238281 -7.558594 C 2.238281 -7.308594 2.15625 -7.054688 2.15625 -6.804688 C 2.15625 -6.550781 2.15625 -6.328125 2.15625 -6.074219 C 2.15625 -5.824219 2.210938 -5.570312 2.210938 -5.320312 C 2.210938 -5.066406 2.15625 -4.816406 2.15625 -4.5625 C 2.15625 -4.339844 2.210938 -4.085938 2.210938 -3.835938 C 2.210938 -3.582031 2.183594 -3.332031 2.183594 -3.078125 C 2.183594 -2.855469 2.128906 -2.605469 2.128906 -2.351562 C 2.128906 -2.128906 2.128906 -1.875 2.101562 -1.566406 C 2.070312 -1.34375 2.070312 -1.09375 2.070312 -0.785156 C 2.042969 -0.421875 2.210938 -0.167969 2.464844 -0.0546875 C 2.742188 0.113281 3.136719 0.0546875 3.304688 0.0546875 C 3.554688 0.0546875 3.835938 0.0273438 4.085938 0.0273438 C 4.367188 0 4.648438 -0.0273438 4.871094 -0.0859375 C 5.152344 -0.195312 5.320312 -0.335938 5.292969 -0.617188 C 5.261719 -0.839844 5.292969 -1.0625 5.292969 -1.289062 C 5.292969 -1.511719 5.261719 -1.734375 5.261719 -1.933594 C 5.261719 -2.15625 5.347656 -2.378906 5.347656 -2.605469 C 5.347656 -2.855469 5.320312 -3.109375 5.320312 -3.359375 C 5.320312 -3.640625 5.347656 -3.890625 5.347656 -4.144531 C 5.347656 -4.421875 5.320312 -4.675781 5.320312 -4.925781 C 5.320312 -5.179688 5.320312 -5.460938 5.320312 -5.710938 C 5.320312 -5.964844 5.320312 -6.242188 5.320312 -6.496094 C 5.320312 -6.746094 5.320312 -7.027344 5.320312 -7.28125 C 5.320312 -7.53125 5.320312 -7.785156 5.320312 -8.0625 C 5.320312 -8.316406 5.375 -8.566406 5.375 -8.847656 C 5.375 -9.070312 5.261719 -9.351562 5.261719 -9.601562 Z M 5.261719 -9.601562 "/></g></g></g><g fill="#000000" fill-opacity="1"><g transform="translate(193.178525, 193.50346)"><g><path d="M 8.566406 -14.585938 C 8.847656 -14.585938 9.128906 -14.558594 9.351562 -14.558594 C 9.632812 -14.558594 9.882812 -14.558594 10.136719 -14.558594 C 10.414062 -14.558594 10.667969 -14.558594 10.917969 -14.558594 C 11.253906 -14.558594 11.507812 -14.644531 11.703125 -14.753906 C 11.925781 -14.894531 12.09375 -15.089844 12.152344 -15.398438 C 12.207031 -15.621094 12.234375 -15.902344 12.234375 -16.210938 C 12.234375 -16.492188 12.179688 -16.742188 12.121094 -16.9375 C 12.066406 -17.191406 11.925781 -17.414062 11.703125 -17.5 C 11.535156 -17.582031 11.28125 -17.609375 10.976562 -17.609375 C 10.722656 -17.609375 10.472656 -17.609375 10.21875 -17.636719 C 9.96875 -17.636719 9.6875 -17.609375 9.433594 -17.609375 C 9.183594 -17.609375 8.929688 -17.636719 8.679688 -17.636719 C 8.425781 -17.636719 8.175781 -17.609375 7.921875 -17.609375 C 7.671875 -17.609375 7.417969 -17.667969 7.140625 -17.667969 C 6.886719 -17.667969 6.636719 -17.609375 6.382812 -17.609375 C 6.132812 -17.609375 5.878906 -17.636719 5.628906 -17.636719 C 5.375 -17.636719 5.125 -17.636719 4.84375 -17.636719 C 4.589844 -17.667969 4.339844 -17.695312 4.085938 -17.722656 C 3.835938 -17.722656 3.582031 -17.695312 3.332031 -17.695312 C 3.078125 -17.695312 2.828125 -17.722656 2.546875 -17.722656 C 2.296875 -17.722656 2.042969 -17.722656 1.792969 -17.722656 C 1.539062 -17.75 1.230469 -17.722656 1.0625 -17.582031 C 0.894531 -17.414062 0.757812 -17.21875 0.699219 -17.023438 C 0.617188 -16.769531 0.671875 -16.519531 0.671875 -16.324219 C 0.699219 -16.070312 0.589844 -15.789062 0.617188 -15.539062 C 0.644531 -15.285156 0.757812 -15.0625 1.007812 -14.867188 C 1.175781 -14.726562 1.398438 -14.613281 1.679688 -14.613281 C 1.902344 -14.585938 2.183594 -14.613281 2.40625 -14.585938 C 2.6875 -14.585938 2.96875 -14.585938 3.21875 -14.558594 C 3.5 -14.53125 3.78125 -14.53125 4.003906 -14.503906 C 4.507812 -14.476562 4.5625 -14.726562 4.816406 -14.417969 C 5.066406 -14.109375 4.816406 -14.082031 4.816406 -13.578125 C 4.816406 -13.328125 4.789062 -13.046875 4.816406 -12.738281 C 4.816406 -12.457031 4.871094 -12.179688 4.871094 -11.898438 C 4.871094 -11.675781 4.789062 -11.421875 4.789062 -11.144531 C 4.789062 -10.890625 4.816406 -10.640625 4.816406 -10.386719 C 4.816406 -10.136719 4.789062 -9.882812 4.789062 -9.632812 C 4.789062 -9.378906 4.757812 -9.128906 4.757812 -8.875 C 4.757812 -8.625 4.789062 -8.34375 4.789062 -8.089844 C 4.789062 -7.839844 4.789062 -7.585938 4.789062 -7.335938 C 4.789062 -7.082031 4.816406 -6.832031 4.816406 -6.578125 C 4.816406 -6.328125 4.84375 -6.046875 4.84375 -5.796875 C 4.84375 -5.542969 4.789062 -5.292969 4.816406 -5.039062 C 4.816406 -4.789062 4.84375 -4.535156 4.84375 -4.285156 C 4.84375 -4.03125 4.871094 -3.78125 4.871094 -3.527344 C 4.871094 -3.277344 4.816406 -3.023438 4.816406 -2.773438 C 4.816406 -2.519531 4.816406 -2.269531 4.84375 -2.015625 C 4.84375 -1.765625 4.871094 -1.511719 4.871094 -1.261719 C 4.871094 -0.867188 4.898438 -0.617188 4.984375 -0.421875 C 5.09375 -0.0859375 5.292969 0.0546875 5.597656 0.0859375 C 5.851562 0.0859375 6.132812 0.0546875 6.46875 0.0546875 C 6.832031 0.0273438 7.082031 -0.0273438 7.28125 -0.0859375 C 7.644531 -0.140625 7.753906 -0.28125 7.839844 -0.53125 C 7.921875 -0.726562 7.953125 -0.980469 7.953125 -1.316406 C 7.953125 -1.566406 7.921875 -1.847656 7.921875 -2.128906 C 7.921875 -2.378906 7.953125 -2.660156 7.921875 -2.941406 C 7.921875 -3.191406 7.894531 -3.472656 7.894531 -3.75 C 7.894531 -4.003906 7.921875 -4.285156 7.921875 -4.535156 C 7.921875 -4.816406 7.867188 -5.09375 7.867188 -5.347656 C 7.867188 -5.628906 7.980469 -5.878906 7.980469 -6.160156 C 7.980469 -6.410156 7.980469 -6.691406 7.953125 -6.945312 C 7.953125 -7.222656 7.921875 -7.503906 7.921875 -7.753906 C 7.921875 -8.007812 7.953125 -8.257812 7.953125 -8.511719 C 7.953125 -8.761719 7.867188 -9.015625 7.867188 -9.265625 C 7.867188 -9.519531 7.839844 -9.769531 7.839844 -10.023438 C 7.839844 -10.273438 7.8125 -10.527344 7.8125 -10.777344 C 7.8125 -11.03125 7.8125 -11.28125 7.8125 -11.535156 C 7.8125 -11.785156 7.785156 -12.039062 7.785156 -12.289062 C 7.785156 -12.542969 7.839844 -12.792969 7.839844 -13.074219 C 7.839844 -13.296875 7.8125 -13.550781 7.8125 -13.832031 C 7.785156 -14.082031 7.839844 -14.277344 7.8125 -14.558594 C 8.089844 -14.558594 8.316406 -14.585938 8.566406 -14.585938 Z M 8.566406 -14.585938 "/></g></g></g><g fill="#000000" fill-opacity="1"><g transform="translate(213.25276, 193.50346)"><g><path d="M 5.402344 -10.304688 C 5.515625 -10.304688 5.710938 -10.023438 5.933594 -9.660156 C 6.046875 -9.464844 6.242188 -9.238281 6.382812 -8.988281 C 6.523438 -8.761719 6.636719 -8.511719 6.746094 -8.257812 C 6.886719 -8.007812 6.972656 -7.726562 7.082031 -7.53125 C 7.222656 -7.308594 7.390625 -7.113281 7.53125 -6.886719 C 7.644531 -6.664062 7.785156 -6.4375 7.921875 -6.214844 C 8.0625 -6.019531 8.148438 -5.765625 8.289062 -5.570312 C 8.425781 -5.347656 8.652344 -5.179688 8.761719 -4.957031 C 8.902344 -4.730469 9.070312 -4.535156 9.210938 -4.3125 C 9.351562 -4.117188 9.464844 -3.890625 9.601562 -3.667969 C 9.769531 -3.445312 9.910156 -3.246094 10.050781 -3.023438 C 10.191406 -2.800781 10.273438 -2.574219 10.414062 -2.351562 C 10.554688 -2.128906 10.722656 -1.933594 10.863281 -1.707031 C 11.003906 -1.484375 11.113281 -1.230469 11.253906 -1.007812 C 11.421875 -0.8125 11.617188 -0.617188 11.816406 -0.449219 C 12.011719 -0.308594 12.234375 -0.167969 12.488281 -0.0859375 C 12.738281 0 12.992188 0 13.296875 0 C 13.605469 0 13.832031 0 14 -0.0273438 C 14.308594 -0.113281 14.390625 -0.28125 14.445312 -0.53125 C 14.476562 -0.726562 14.476562 -0.953125 14.503906 -1.261719 C 14.503906 -1.511719 14.476562 -1.765625 14.503906 -2.015625 C 14.503906 -2.269531 14.558594 -2.519531 14.585938 -2.773438 C 14.585938 -3.023438 14.53125 -3.277344 14.53125 -3.527344 C 14.53125 -3.78125 14.558594 -4.03125 14.558594 -4.285156 C 14.558594 -4.535156 14.613281 -4.789062 14.613281 -5.039062 C 14.613281 -5.292969 14.558594 -5.542969 14.585938 -5.824219 C 14.585938 -6.074219 14.644531 -6.328125 14.644531 -6.578125 C 14.644531 -6.832031 14.671875 -7.082031 14.671875 -7.335938 C 14.671875 -7.585938 14.613281 -7.839844 14.613281 -8.089844 C 14.613281 -8.34375 14.699219 -8.59375 14.699219 -8.847656 C 14.699219 -9.128906 14.699219 -9.378906 14.699219 -9.632812 C 14.726562 -9.882812 14.671875 -10.136719 14.671875 -10.386719 C 14.671875 -10.640625 14.671875 -10.890625 14.671875 -11.144531 C 14.671875 -11.394531 14.726562 -11.648438 14.726562 -11.898438 C 14.726562 -12.152344 14.753906 -12.402344 14.753906 -12.625 C 14.753906 -12.90625 14.699219 -13.160156 14.699219 -13.382812 C 14.699219 -13.664062 14.78125 -13.914062 14.78125 -14.167969 C 14.78125 -14.417969 14.753906 -14.671875 14.753906 -14.921875 C 14.753906 -15.175781 14.753906 -15.425781 14.753906 -15.679688 C 14.753906 -15.957031 14.8125 -16.183594 14.78125 -16.40625 C 14.753906 -16.6875 14.726562 -16.9375 14.644531 -17.132812 C 14.53125 -17.386719 14.363281 -17.554688 14.109375 -17.636719 C 13.914062 -17.722656 13.664062 -17.667969 13.382812 -17.667969 C 13.160156 -17.636719 12.90625 -17.636719 12.625 -17.582031 C 12.429688 -17.554688 12.207031 -17.441406 11.953125 -17.359375 C 11.953125 -17.132812 11.898438 -16.9375 11.898438 -16.660156 C 11.871094 -16.433594 11.898438 -16.183594 11.898438 -15.929688 C 11.898438 -15.679688 11.84375 -15.425781 11.84375 -15.175781 C 11.84375 -14.921875 11.898438 -14.671875 11.898438 -14.417969 C 11.898438 -14.195312 11.84375 -13.941406 11.84375 -13.691406 C 11.84375 -13.4375 11.871094 -13.1875 11.871094 -12.933594 C 11.871094 -12.683594 11.785156 -12.429688 11.785156 -12.179688 C 11.785156 -11.953125 11.871094 -11.703125 11.871094 -11.449219 C 11.871094 -11.199219 11.816406 -10.945312 11.816406 -10.695312 C 11.816406 -10.441406 11.785156 -10.191406 11.785156 -9.96875 C 11.785156 -9.714844 11.816406 -9.464844 11.816406 -9.210938 C 11.816406 -8.960938 11.785156 -8.707031 11.785156 -8.484375 C 11.757812 -8.203125 11.730469 -7.953125 11.730469 -7.753906 C 11.703125 -7.28125 11.703125 -7 11.675781 -7.027344 C 11.421875 -7.054688 11.226562 -7.308594 11.03125 -7.585938 C 10.863281 -7.867188 10.722656 -8.203125 10.609375 -8.371094 C 10.472656 -8.566406 10.273438 -8.761719 10.164062 -8.960938 C 10.023438 -9.183594 9.882812 -9.40625 9.742188 -9.632812 C 9.601562 -9.828125 9.546875 -10.078125 9.40625 -10.304688 C 9.265625 -10.527344 9.070312 -10.695312 8.929688 -10.917969 C 8.820312 -11.144531 8.679688 -11.339844 8.539062 -11.5625 C 8.398438 -11.785156 8.289062 -12.011719 8.148438 -12.234375 C 8.007812 -12.457031 7.894531 -12.683594 7.785156 -12.90625 C 7.644531 -13.101562 7.503906 -13.328125 7.363281 -13.550781 C 7.222656 -13.773438 7.140625 -14 7 -14.222656 C 6.886719 -14.445312 6.691406 -14.613281 6.550781 -14.839844 C 6.410156 -15.035156 6.328125 -15.285156 6.1875 -15.484375 C 6.046875 -15.707031 5.878906 -15.902344 5.738281 -16.125 C 5.628906 -16.351562 5.488281 -16.574219 5.375 -16.769531 C 5.207031 -17.078125 5.066406 -17.246094 4.898438 -17.414062 C 4.703125 -17.582031 4.507812 -17.636719 4.199219 -17.667969 C 4.003906 -17.695312 3.722656 -17.695312 3.414062 -17.667969 C 2.96875 -17.695312 2.714844 -17.695312 2.546875 -17.695312 C 2.210938 -17.667969 2.183594 -17.554688 2.183594 -17.050781 C 2.183594 -16.796875 2.238281 -16.546875 2.238281 -16.292969 C 2.238281 -16.042969 2.238281 -15.789062 2.238281 -15.539062 C 2.238281 -15.285156 2.15625 -15.035156 2.15625 -14.78125 C 2.15625 -14.53125 2.183594 -14.277344 2.183594 -14.027344 C 2.183594 -13.773438 2.15625 -13.523438 2.183594 -13.269531 C 2.183594 -13.019531 2.210938 -12.765625 2.210938 -12.515625 C 2.210938 -12.261719 2.238281 -12.011719 2.238281 -11.757812 C 2.238281 -11.507812 2.210938 -11.253906 2.210938 -11.003906 C 2.210938 -10.75 2.15625 -10.5 2.15625 -10.273438 C 2.183594 -10.023438 2.238281 -9.769531 2.238281 -9.519531 C 2.238281 -9.265625 2.269531 -9.015625 2.269531 -8.761719 C 2.269531 -8.511719 2.238281 -8.257812 2.238281 -8.007812 C 2.238281 -7.753906 2.238281 -7.503906 2.238281 -7.25 C 2.238281 -7.027344 2.269531 -6.746094 2.269531 -6.496094 C 2.269531 -6.242188 2.238281 -5.992188 2.238281 -5.710938 C 2.238281 -5.460938 2.238281 -5.207031 2.238281 -4.925781 C 2.238281 -4.675781 2.183594 -4.421875 2.183594 -4.144531 C 2.183594 -3.890625 2.238281 -3.640625 2.238281 -3.386719 C 2.238281 -3.109375 2.210938 -2.855469 2.183594 -2.605469 C 2.183594 -2.351562 2.210938 -2.070312 2.210938 -1.820312 C 2.210938 -1.566406 2.183594 -1.289062 2.183594 -1.0625 C 2.183594 -0.726562 2.238281 -0.503906 2.351562 -0.335938 C 2.464844 -0.140625 2.660156 0 2.941406 0.0546875 C 3.136719 0.113281 3.386719 0.140625 3.667969 0.140625 C 3.976562 0.140625 4.226562 0.113281 4.453125 0.0546875 C 4.730469 0 4.957031 -0.113281 5.09375 -0.335938 C 5.207031 -0.503906 5.234375 -0.757812 5.261719 -1.0625 C 5.261719 -1.261719 5.261719 -1.511719 5.234375 -1.765625 C 5.234375 -2.015625 5.234375 -2.238281 5.234375 -2.492188 C 5.207031 -2.742188 5.207031 -2.996094 5.207031 -3.191406 C 5.207031 -3.472656 5.207031 -3.75 5.207031 -4.003906 C 5.179688 -4.285156 5.179688 -4.535156 5.179688 -4.789062 C 5.179688 -5.066406 5.179688 -5.347656 5.179688 -5.597656 C 5.179688 -5.878906 5.207031 -6.132812 5.207031 -6.410156 C 5.207031 -6.664062 5.261719 -6.945312 5.261719 -7.195312 C 5.261719 -7.476562 5.207031 -7.726562 5.207031 -8.007812 C 5.207031 -8.257812 5.207031 -8.539062 5.207031 -8.820312 C 5.207031 -9.070312 5.207031 -9.324219 5.179688 -9.632812 C 5.207031 -9.9375 5.09375 -10.359375 5.402344 -10.304688 Z M 5.402344 -10.304688 "/></g></g></g><g fill="#000000" fill-opacity="1"><g transform="translate(237.330447, 193.50346)"><g><path d="M 14.980469 -10.105469 C 14.980469 -10.332031 14.867188 -10.554688 14.867188 -10.777344 C 14.839844 -11.03125 14.8125 -11.253906 14.78125 -11.480469 C 14.753906 -11.703125 14.78125 -11.953125 14.726562 -12.179688 C 14.644531 -12.429688 14.503906 -12.65625 14.445312 -12.933594 C 14.363281 -13.1875 14.308594 -13.4375 14.222656 -13.691406 C 14.140625 -13.941406 14.082031 -14.222656 13.972656 -14.445312 C 13.886719 -14.699219 13.804688 -14.949219 13.664062 -15.203125 C 13.550781 -15.425781 13.410156 -15.679688 13.242188 -15.875 C 13.101562 -16.097656 12.933594 -16.324219 12.738281 -16.519531 C 12.542969 -16.6875 12.289062 -16.796875 12.066406 -16.964844 C 11.84375 -17.105469 11.617188 -17.246094 11.367188 -17.359375 C 11.144531 -17.46875 10.863281 -17.527344 10.609375 -17.609375 C 10.359375 -17.667969 10.105469 -17.75 9.828125 -17.804688 C 9.574219 -17.863281 9.324219 -17.890625 9.042969 -17.890625 C 8.792969 -17.917969 8.511719 -17.917969 8.257812 -17.917969 C 7.980469 -17.917969 7.726562 -17.917969 7.449219 -17.863281 C 7.195312 -17.835938 6.945312 -17.777344 6.664062 -17.722656 C 6.410156 -17.667969 6.132812 -17.667969 5.878906 -17.582031 C 5.628906 -17.46875 5.402344 -17.332031 5.179688 -17.191406 C 4.925781 -17.078125 4.730469 -16.9375 4.507812 -16.769531 C 4.285156 -16.628906 4.003906 -16.546875 3.808594 -16.351562 C 3.613281 -16.183594 3.472656 -15.957031 3.277344 -15.734375 C 3.136719 -15.539062 2.96875 -15.316406 2.828125 -15.089844 C 2.6875 -14.867188 2.605469 -14.585938 2.519531 -14.335938 C 2.40625 -14.109375 2.324219 -13.859375 2.238281 -13.578125 C 2.183594 -13.328125 2.070312 -13.074219 2.015625 -12.824219 C 1.960938 -12.542969 1.847656 -12.289062 1.792969 -12.039062 C 1.734375 -11.757812 1.765625 -11.480469 1.734375 -11.226562 C 1.707031 -10.945312 1.679688 -10.695312 1.652344 -10.414062 C 1.625 -10.164062 1.566406 -9.882812 1.566406 -9.632812 C 1.539062 -9.351562 1.539062 -9.097656 1.566406 -8.820312 C 1.566406 -8.539062 1.597656 -8.289062 1.625 -8.007812 C 1.625 -7.753906 1.625 -7.476562 1.652344 -7.195312 C 1.679688 -6.945312 1.734375 -6.691406 1.792969 -6.410156 C 1.847656 -6.160156 1.820312 -5.878906 1.902344 -5.597656 C 1.960938 -5.375 2.101562 -5.152344 2.15625 -4.898438 C 2.238281 -4.648438 2.296875 -4.394531 2.378906 -4.171875 C 2.464844 -3.917969 2.574219 -3.695312 2.6875 -3.472656 C 2.800781 -3.246094 2.910156 -3.023438 3.023438 -2.800781 C 3.164062 -2.574219 3.332031 -2.378906 3.472656 -2.15625 C 3.640625 -1.933594 3.78125 -1.734375 3.976562 -1.539062 C 4.171875 -1.34375 4.367188 -1.148438 4.5625 -0.980469 C 4.757812 -0.8125 5.011719 -0.671875 5.234375 -0.53125 C 5.460938 -0.390625 5.710938 -0.253906 5.933594 -0.140625 C 6.1875 -0.0273438 6.46875 0.0273438 6.71875 0.0859375 C 6.972656 0.167969 7.25 0.195312 7.503906 0.253906 C 7.785156 0.28125 8.035156 0.28125 8.316406 0.28125 C 8.566406 0.28125 8.847656 0.28125 9.097656 0.222656 C 9.378906 0.195312 9.632812 0.140625 9.882812 0.0546875 C 10.136719 -0.0273438 10.386719 -0.113281 10.640625 -0.222656 C 10.890625 -0.335938 11.113281 -0.476562 11.339844 -0.617188 C 11.5625 -0.785156 11.785156 -0.894531 12.011719 -1.09375 C 12.207031 -1.261719 12.429688 -1.398438 12.625 -1.597656 C 12.792969 -1.792969 12.933594 -2.042969 13.074219 -2.269531 C 13.214844 -2.492188 13.355469 -2.6875 13.496094 -2.910156 C 13.605469 -3.109375 13.746094 -3.332031 13.859375 -3.554688 C 13.972656 -3.78125 14.054688 -4.003906 14.167969 -4.253906 C 14.25 -4.480469 14.308594 -4.730469 14.390625 -4.957031 C 14.476562 -5.207031 14.585938 -5.429688 14.644531 -5.65625 C 14.699219 -5.90625 14.78125 -6.160156 14.839844 -6.410156 C 14.867188 -6.636719 14.894531 -6.886719 14.921875 -7.140625 C 14.949219 -7.390625 14.980469 -7.644531 15.007812 -7.894531 C 15.007812 -8.148438 15.007812 -8.398438 15.007812 -8.652344 C 15.007812 -8.902344 15.007812 -9.15625 15.007812 -9.40625 C 14.980469 -9.632812 15.007812 -9.855469 14.980469 -10.105469 Z M 4.480469 -9.464844 C 4.507812 -9.714844 4.480469 -9.9375 4.507812 -10.191406 C 4.535156 -10.414062 4.535156 -10.667969 4.5625 -10.890625 C 4.589844 -11.144531 4.648438 -11.367188 4.703125 -11.589844 C 4.730469 -11.84375 4.816406 -12.066406 4.871094 -12.289062 C 4.925781 -12.542969 4.957031 -12.824219 5.066406 -13.046875 C 5.207031 -13.269531 5.347656 -13.496094 5.488281 -13.691406 C 5.65625 -13.914062 5.878906 -14.082031 6.074219 -14.25 C 6.269531 -14.390625 6.496094 -14.558594 6.71875 -14.671875 C 6.945312 -14.78125 7.195312 -14.921875 7.449219 -14.980469 C 7.699219 -15.0625 7.980469 -15.0625 8.230469 -15.0625 C 8.484375 -15.0625 8.734375 -15.0625 8.988281 -14.980469 C 9.210938 -14.921875 9.433594 -14.78125 9.660156 -14.644531 C 9.882812 -14.53125 10.105469 -14.445312 10.304688 -14.277344 C 10.5 -14.109375 10.640625 -13.886719 10.808594 -13.691406 C 10.945312 -13.496094 11.085938 -13.296875 11.226562 -13.046875 C 11.339844 -12.851562 11.421875 -12.597656 11.507812 -12.347656 C 11.589844 -12.09375 11.675781 -11.84375 11.730469 -11.589844 C 11.785156 -11.339844 11.84375 -11.085938 11.898438 -10.835938 C 11.925781 -10.554688 11.953125 -10.304688 11.984375 -10.050781 C 12.011719 -9.769531 12.066406 -9.519531 12.09375 -9.265625 C 12.09375 -8.988281 12.066406 -8.734375 12.066406 -8.484375 C 12.066406 -8.203125 12.066406 -7.953125 12.039062 -7.671875 C 12.011719 -7.417969 11.953125 -7.167969 11.898438 -6.886719 C 11.84375 -6.636719 11.785156 -6.382812 11.730469 -6.132812 C 11.648438 -5.878906 11.5625 -5.628906 11.449219 -5.375 C 11.367188 -5.125 11.253906 -4.898438 11.144531 -4.703125 C 11.03125 -4.480469 10.890625 -4.253906 10.75 -4.085938 C 10.582031 -3.890625 10.414062 -3.695312 10.21875 -3.554688 C 10.023438 -3.386719 9.800781 -3.304688 9.574219 -3.191406 C 9.351562 -3.078125 9.097656 -3.078125 8.847656 -3.050781 C 8.625 -2.996094 8.371094 -2.941406 8.121094 -2.96875 C 7.867188 -2.996094 7.617188 -3.023438 7.390625 -3.109375 C 7.140625 -3.164062 6.886719 -3.277344 6.691406 -3.386719 C 6.46875 -3.5 6.269531 -3.667969 6.101562 -3.835938 C 5.90625 -4.003906 5.738281 -4.199219 5.597656 -4.421875 C 5.460938 -4.621094 5.375 -4.871094 5.292969 -5.09375 C 5.179688 -5.320312 5.125 -5.570312 5.039062 -5.824219 C 4.957031 -6.046875 4.871094 -6.300781 4.816406 -6.523438 C 4.757812 -6.777344 4.730469 -7.027344 4.675781 -7.28125 C 4.648438 -7.53125 4.5625 -7.785156 4.535156 -8.007812 C 4.480469 -8.257812 4.453125 -8.511719 4.394531 -8.761719 C 4.421875 -8.988281 4.453125 -9.238281 4.480469 -9.464844 Z M 4.480469 -9.464844 "/></g></g></g><g fill="#000000" fill-opacity="1"><g transform="translate(261.128171, 193.50346)"><g><path d="M 6.214844 -7.953125 C 6.132812 -8.203125 6.046875 -8.484375 5.992188 -8.761719 C 5.90625 -9.042969 5.851562 -9.324219 5.796875 -9.574219 C 5.710938 -9.855469 5.65625 -10.136719 5.570312 -10.386719 C 5.515625 -10.640625 5.429688 -10.890625 5.375 -11.144531 C 5.320312 -11.394531 5.292969 -11.648438 5.234375 -11.925781 C 5.179688 -12.179688 5.09375 -12.429688 5.039062 -12.683594 C 4.984375 -12.933594 4.984375 -13.214844 4.925781 -13.46875 C 4.871094 -13.71875 4.730469 -13.972656 4.675781 -14.222656 C 4.621094 -14.476562 4.589844 -14.753906 4.535156 -15.007812 C 4.480469 -15.257812 4.394531 -15.511719 4.339844 -15.761719 C 4.253906 -16.015625 4.226562 -16.265625 4.144531 -16.519531 C 4.085938 -16.769531 3.976562 -17.023438 3.917969 -17.273438 C 3.835938 -17.527344 3.613281 -17.582031 3.332031 -17.609375 C 3.109375 -17.609375 2.828125 -17.609375 2.605469 -17.667969 C 2.351562 -17.722656 2.128906 -17.695312 1.933594 -17.695312 C 1.679688 -17.667969 1.457031 -17.609375 1.289062 -17.5 C 1.121094 -17.359375 1.035156 -17.164062 1.007812 -16.910156 C 0.980469 -16.6875 1.035156 -16.378906 1.121094 -16.042969 C 1.175781 -15.707031 1.289062 -15.371094 1.34375 -15.175781 C 1.398438 -14.921875 1.457031 -14.671875 1.511719 -14.417969 C 1.597656 -14.167969 1.652344 -13.914062 1.707031 -13.664062 C 1.765625 -13.4375 1.847656 -13.1875 1.902344 -12.933594 C 1.960938 -12.683594 2.042969 -12.429688 2.101562 -12.179688 C 2.15625 -11.953125 2.183594 -11.675781 2.238281 -11.449219 C 2.324219 -11.199219 2.296875 -10.917969 2.378906 -10.667969 C 2.4375 -10.441406 2.546875 -10.191406 2.605469 -9.9375 C 2.660156 -9.6875 2.714844 -9.433594 2.800781 -9.210938 C 2.855469 -8.960938 2.910156 -8.707031 2.96875 -8.457031 C 3.050781 -8.203125 3.109375 -7.953125 3.164062 -7.699219 C 3.21875 -7.476562 3.304688 -7.222656 3.359375 -6.972656 C 3.445312 -6.71875 3.445312 -6.46875 3.527344 -6.214844 C 3.582031 -5.964844 3.640625 -5.710938 3.695312 -5.460938 C 3.75 -5.234375 3.835938 -4.984375 3.890625 -4.730469 C 3.976562 -4.480469 4.003906 -4.226562 4.085938 -3.976562 C 4.144531 -3.75 4.226562 -3.5 4.285156 -3.246094 C 4.367188 -2.996094 4.421875 -2.742188 4.480469 -2.492188 C 4.535156 -2.269531 4.648438 -2.015625 4.703125 -1.765625 C 4.757812 -1.511719 4.789062 -1.261719 4.84375 -1.007812 C 4.925781 -0.757812 5.066406 -0.558594 5.179688 -0.421875 C 5.347656 -0.253906 5.488281 -0.0859375 5.765625 -0.0273438 C 5.964844 0.0273438 6.1875 -0.0273438 6.46875 -0.0273438 C 6.71875 -0.0273438 6.914062 -0.0546875 7.113281 -0.0859375 C 7.363281 -0.140625 7.558594 -0.222656 7.699219 -0.363281 C 7.867188 -0.503906 8.007812 -0.671875 8.089844 -0.894531 C 8.175781 -1.148438 8.230469 -1.398438 8.316406 -1.652344 C 8.398438 -1.902344 8.511719 -2.15625 8.59375 -2.40625 C 8.652344 -2.660156 8.761719 -2.882812 8.820312 -3.136719 C 8.902344 -3.386719 8.960938 -3.667969 9.015625 -3.917969 C 9.097656 -4.171875 9.183594 -4.421875 9.265625 -4.675781 C 9.324219 -4.925781 9.324219 -5.207031 9.40625 -5.460938 C 9.464844 -5.710938 9.632812 -5.933594 9.714844 -6.1875 C 9.769531 -6.4375 9.769531 -6.691406 9.855469 -6.945312 C 9.9375 -7.222656 10.078125 -7.449219 10.164062 -7.699219 C 10.21875 -7.894531 10.273438 -8.089844 10.386719 -8.316406 C 10.472656 -8.511719 10.554688 -8.707031 10.667969 -8.960938 C 10.75 -9.128906 10.835938 -9.351562 10.945312 -9.601562 C 11.003906 -9.324219 11.085938 -9.070312 11.144531 -8.820312 C 11.199219 -8.539062 11.253906 -8.289062 11.3125 -8.035156 C 11.394531 -7.753906 11.421875 -7.503906 11.480469 -7.25 C 11.5625 -7 11.703125 -6.746094 11.757812 -6.496094 C 11.816406 -6.242188 11.816406 -5.964844 11.871094 -5.710938 C 11.953125 -5.460938 12.066406 -5.207031 12.121094 -4.957031 C 12.179688 -4.703125 12.207031 -4.421875 12.289062 -4.171875 C 12.347656 -3.949219 12.375 -3.695312 12.429688 -3.472656 C 12.488281 -3.246094 12.570312 -3.023438 12.625 -2.773438 C 12.683594 -2.546875 12.738281 -2.324219 12.792969 -2.101562 C 12.851562 -1.847656 12.960938 -1.625 13.046875 -1.398438 C 13.128906 -1.175781 13.242188 -0.980469 13.328125 -0.757812 C 13.4375 -0.53125 13.496094 -0.335938 13.664062 -0.222656 C 13.773438 -0.113281 13.972656 -0.0859375 14.25 -0.0273438 C 14.417969 -0.0273438 14.644531 -0.0546875 14.894531 -0.0546875 C 15.34375 -0.0546875 15.59375 -0.0273438 15.789062 -0.0859375 C 16.070312 -0.222656 16.15625 -0.421875 16.40625 -0.726562 C 16.601562 -0.953125 16.601562 -1.34375 16.6875 -1.679688 C 16.769531 -1.933594 16.828125 -2.183594 16.910156 -2.4375 C 16.964844 -2.6875 17.078125 -2.910156 17.164062 -3.164062 C 17.21875 -3.414062 17.273438 -3.667969 17.359375 -3.917969 C 17.414062 -4.171875 17.441406 -4.421875 17.527344 -4.675781 C 17.582031 -4.925781 17.609375 -5.207031 17.667969 -5.460938 C 17.75 -5.710938 17.863281 -5.933594 17.917969 -6.1875 C 18.003906 -6.4375 18.058594 -6.691406 18.113281 -6.945312 C 18.199219 -7.195312 18.28125 -7.449219 18.339844 -7.699219 C 18.421875 -7.953125 18.421875 -8.203125 18.507812 -8.457031 C 18.5625 -8.707031 18.675781 -8.960938 18.730469 -9.210938 C 18.8125 -9.464844 18.84375 -9.714844 18.898438 -9.96875 C 18.980469 -10.21875 19.148438 -10.441406 19.207031 -10.695312 C 19.289062 -10.945312 19.347656 -11.199219 19.402344 -11.449219 C 19.484375 -11.703125 19.515625 -11.953125 19.570312 -12.207031 C 19.652344 -12.429688 19.738281 -12.683594 19.820312 -12.960938 C 19.878906 -13.214844 19.878906 -13.523438 19.933594 -13.804688 C 20.019531 -14.054688 20.046875 -14.308594 20.128906 -14.585938 C 20.1875 -14.867188 20.242188 -15.117188 20.296875 -15.398438 C 20.355469 -15.652344 20.410156 -15.929688 20.464844 -16.183594 C 20.523438 -16.492188 20.578125 -16.742188 20.605469 -16.964844 C 20.664062 -17.300781 20.691406 -17.527344 20.550781 -17.609375 C 20.410156 -17.722656 20.1875 -17.695312 19.878906 -17.695312 C 19.683594 -17.695312 19.457031 -17.75 19.207031 -17.75 C 18.925781 -17.75 18.730469 -17.636719 18.535156 -17.636719 C 18.253906 -17.636719 18.085938 -17.582031 17.945312 -17.46875 C 17.835938 -17.332031 17.695312 -17.191406 17.609375 -16.882812 C 17.554688 -16.6875 17.527344 -16.433594 17.46875 -16.183594 C 17.414062 -15.957031 17.386719 -15.734375 17.332031 -15.484375 C 17.273438 -15.257812 17.191406 -15.035156 17.132812 -14.78125 C 17.078125 -14.558594 16.996094 -14.335938 16.964844 -14.082031 C 16.910156 -13.859375 16.882812 -13.605469 16.855469 -13.382812 C 16.796875 -13.160156 16.628906 -12.933594 16.574219 -12.710938 C 16.519531 -12.488281 16.519531 -12.234375 16.460938 -12.011719 C 16.40625 -11.757812 16.292969 -11.535156 16.265625 -11.3125 C 16.183594 -11.058594 16.125 -10.808594 16.070312 -10.554688 C 16.015625 -10.332031 15.988281 -10.050781 15.902344 -9.800781 C 15.847656 -9.546875 15.761719 -9.324219 15.707031 -9.070312 C 15.621094 -8.820312 15.539062 -8.566406 15.453125 -8.316406 C 15.398438 -8.0625 15.371094 -7.8125 15.316406 -7.558594 C 15.203125 -7.308594 15.035156 -7.027344 14.921875 -7.054688 C 14.839844 -7.054688 14.726562 -7.195312 14.585938 -7.585938 C 14.53125 -7.839844 14.503906 -8.089844 14.445312 -8.34375 C 14.363281 -8.59375 14.308594 -8.847656 14.25 -9.097656 C 14.167969 -9.351562 14.109375 -9.601562 14.054688 -9.882812 C 13.972656 -10.105469 13.886719 -10.359375 13.832031 -10.609375 C 13.746094 -10.863281 13.746094 -11.144531 13.664062 -11.394531 C 13.605469 -11.648438 13.4375 -11.871094 13.382812 -12.121094 C 13.296875 -12.375 13.269531 -12.625 13.1875 -12.878906 C 13.128906 -13.128906 13.046875 -13.382812 12.992188 -13.636719 C 12.90625 -13.886719 12.90625 -14.140625 12.824219 -14.390625 C 12.765625 -14.644531 12.683594 -14.894531 12.597656 -15.148438 C 12.542969 -15.398438 12.457031 -15.652344 12.402344 -15.875 C 12.347656 -16.125 12.347656 -16.378906 12.320312 -16.574219 C 12.289062 -16.855469 12.234375 -17.050781 12.152344 -17.246094 C 12.039062 -17.414062 11.898438 -17.527344 11.589844 -17.609375 C 11.421875 -17.636719 11.199219 -17.722656 10.917969 -17.722656 C 10.554688 -17.722656 10.304688 -17.695312 10.105469 -17.609375 C 9.855469 -17.554688 9.714844 -17.359375 9.574219 -17.050781 C 9.464844 -16.855469 9.324219 -16.628906 9.238281 -16.292969 C 9.15625 -16.070312 9.070312 -15.820312 8.988281 -15.511719 C 8.929688 -15.257812 8.875 -15.007812 8.820312 -14.753906 C 8.734375 -14.503906 8.734375 -14.222656 8.652344 -13.972656 C 8.59375 -13.71875 8.484375 -13.496094 8.398438 -13.242188 C 8.34375 -12.992188 8.230469 -12.738281 8.148438 -12.488281 C 8.0625 -12.234375 8.007812 -11.984375 7.953125 -11.730469 C 7.867188 -11.480469 7.8125 -11.226562 7.726562 -10.976562 C 7.644531 -10.722656 7.617188 -10.441406 7.558594 -10.191406 C 7.476562 -9.9375 7.363281 -9.714844 7.308594 -9.464844 C 7.222656 -9.210938 7.195312 -8.929688 7.140625 -8.679688 C 7.054688 -8.425781 6.945312 -8.203125 6.886719 -7.953125 C 6.382812 -7.476562 6.496094 -7.617188 6.214844 -7.953125 Z M 6.214844 -7.953125 "/></g></g></g><g fill="#000000" fill-opacity="1"><g transform="translate(289.937205, 193.50346)"><g><path d="M 4.757812 -2.574219 C 4.675781 -2.828125 4.5625 -3.050781 4.421875 -3.246094 C 4.253906 -3.445312 4.03125 -3.582031 3.808594 -3.695312 C 3.582031 -3.78125 3.332031 -3.835938 3.078125 -3.835938 C 2.773438 -3.863281 2.519531 -3.808594 2.269531 -3.75 C 2.015625 -3.640625 1.765625 -3.527344 1.566406 -3.332031 C 1.371094 -3.164062 1.230469 -2.941406 1.148438 -2.660156 C 1.035156 -2.4375 0.980469 -2.183594 0.980469 -1.875 C 0.953125 -1.597656 1.007812 -1.316406 1.0625 -1.09375 C 1.148438 -0.8125 1.261719 -0.558594 1.429688 -0.390625 C 1.597656 -0.167969 1.820312 -0.0273438 2.101562 0.0859375 C 2.324219 0.167969 2.574219 0.222656 2.882812 0.222656 C 3.164062 0.253906 3.445312 0.167969 3.667969 0.0859375 C 3.917969 -0.0273438 4.144531 -0.167969 4.339844 -0.363281 C 4.507812 -0.558594 4.675781 -0.785156 4.757812 -1.035156 C 4.84375 -1.289062 4.871094 -1.566406 4.871094 -1.847656 C 4.871094 -2.101562 4.84375 -2.351562 4.757812 -2.574219 Z M 4.757812 -2.574219 "/></g></g></g></svg>